<svg version="1.1" xmlns="http://www.w3.org/2000/svg" viewBox="0 0 141.43595377604174 136.51280721028616" width="141.43595377604174" height="136.51280721028616">
  <!-- svg-source:excalidraw -->
  
  <defs>
    <style>
      @font-face {
        font-family: "Virgil";
        src: url("https://excalidraw.com/Virgil.woff2");
      }
      @font-face {
        font-family: "Cascadia";
        src: url("https://excalidraw.com/Cascadia.woff2");
      }
    </style>
  </defs>
  <rect x="0" y="0" width="141.43595377604174" height="136.51280721028616" fill="#ffffff"></rect><g stroke-linecap="round" transform="translate(10 10) rotate(0 60.71797688802087 58.25640360514308)"><path d="M121.44 58.26 C121.44 60.6, 121.29 62.95, 120.99 65.28 C120.7 67.6, 120.26 69.93, 119.67 72.2 C119.09 74.47, 118.36 76.73, 117.49 78.91 C116.63 81.1, 115.61 83.26, 114.48 85.33 C113.35 87.4, 112.07 89.42, 110.69 91.35 C109.3 93.28, 107.78 95.14, 106.17 96.89 C104.55 98.64, 102.81 100.31, 100.98 101.86 C99.16 103.41, 97.22 104.87, 95.21 106.2 C93.2 107.53, 91.1 108.75, 88.94 109.84 C86.77 110.93, 84.53 111.9, 82.25 112.73 C79.97 113.56, 77.62 114.26, 75.25 114.82 C72.88 115.38, 70.46 115.81, 68.04 116.09 C65.61 116.37, 63.16 116.51, 60.72 116.51 C58.28 116.51, 55.82 116.37, 53.4 116.09 C50.98 115.81, 48.56 115.38, 46.19 114.82 C43.82 114.26, 41.47 113.56, 39.19 112.73 C36.91 111.9, 34.66 110.93, 32.5 109.84 C30.34 108.75, 28.23 107.53, 26.23 106.2 C24.22 104.87, 22.28 103.41, 20.45 101.86 C18.63 100.31, 16.89 98.64, 15.27 96.89 C13.65 95.14, 12.13 93.28, 10.75 91.35 C9.36 89.42, 8.09 87.4, 6.95 85.33 C5.82 83.26, 4.81 81.1, 3.95 78.91 C3.08 76.73, 2.35 74.47, 1.76 72.2 C1.18 69.93, 0.74 67.6, 0.44 65.28 C0.15 62.95, 0 60.6, 0 58.26 C0 55.92, 0.15 53.56, 0.44 51.23 C0.74 48.91, 1.18 46.59, 1.76 44.31 C2.35 42.04, 3.08 39.79, 3.95 37.6 C4.81 35.41, 5.82 33.26, 6.95 31.18 C8.09 29.11, 9.36 27.09, 10.75 25.16 C12.13 23.24, 13.65 21.38, 15.27 19.63 C16.89 17.87, 18.63 16.2, 20.45 14.65 C22.28 13.1, 24.22 11.64, 26.23 10.31 C28.23 8.98, 30.34 7.76, 32.5 6.67 C34.66 5.59, 36.91 4.62, 39.19 3.79 C41.47 2.96, 43.82 2.25, 46.19 1.69 C48.56 1.13, 50.98 0.71, 53.4 0.42 C55.82 0.14, 58.28 0, 60.72 0 C63.16 0, 65.61 0.14, 68.04 0.42 C70.46 0.71, 72.88 1.13, 75.25 1.69 C77.62 2.25, 79.97 2.96, 82.25 3.79 C84.53 4.62, 86.77 5.59, 88.94 6.67 C91.1 7.76, 93.2 8.98, 95.21 10.31 C97.22 11.64, 99.16 13.1, 100.98 14.65 C102.81 16.2, 104.55 17.87, 106.17 19.63 C107.78 21.38, 109.3 23.24, 110.69 25.16 C112.07 27.09, 113.35 29.11, 114.48 31.18 C115.61 33.26, 116.63 35.41, 117.49 37.6 C118.36 39.79, 119.09 42.04, 119.67 44.31 C120.26 46.59, 120.7 48.91, 120.99 51.23 C121.29 53.56, 121.44 55.92, 121.44 58.26" stroke="#000000" stroke-width="4" fill="none"></path></g></svg>