<svg version="1.1" xmlns="http://www.w3.org/2000/svg" viewBox="0 0 138.153788248698 120.1025390625" width="138.153788248698" height="120.1025390625">
  <!-- svg-source:excalidraw -->
  
  <defs>
    <style>
      @font-face {
        font-family: "Virgil";
        src: url("https://excalidraw.com/Virgil.woff2");
      }
      @font-face {
        font-family: "Cascadia";
        src: url("https://excalidraw.com/Cascadia.woff2");
      }
    </style>
  </defs>
  <rect x="0" y="0" width="138.153788248698" height="120.1025390625" fill="#ffffff"></rect><g stroke-linecap="round"><g transform="translate(82.20509847005201 10) rotate(0 -36.102549235026004 50.05126953125)"><path d="M0 0 C-12.03 16.68, -60.17 83.42, -72.21 100.1 M0 0 C-12.03 16.68, -60.17 83.42, -72.21 100.1" stroke="#000000" stroke-width="4" fill="none"></path></g></g><g stroke-linecap="round"><g transform="translate(10 108.46150716145848) rotate(0 59.076894124348996 0)"><path d="M0 0 C19.69 0, 98.46 0, 118.15 0 M0 0 C19.69 0, 98.46 0, 118.15 0" stroke="#000000" stroke-width="4" fill="none"></path></g></g><g stroke-linecap="round"><g transform="translate(82.20509847005201 10) rotate(0 22.15382893880212 48.41023763020826)"><path d="M0 0 C7.38 16.14, 36.92 80.68, 44.31 96.82 M0 0 C7.38 16.14, 36.92 80.68, 44.31 96.82" stroke="#000000" stroke-width="4" fill="none"></path></g></g></svg>